<?xml version="1.0" standalone="no"?>
<!DOCTYPE svg PUBLIC "-//W3C//DTD SVG 20010904//EN"
 "http://www.w3.org/TR/2001/REC-SVG-20010904/DTD/svg10.dtd">
<svg version="1.0" xmlns="http://www.w3.org/2000/svg"
 width="198.000000pt" height="198.000000pt" viewBox="0 0 198.000000 198.000000"
 preserveAspectRatio="xMidYMid meet">
<metadata>
Created by potrace 1.14, written by Peter Selinger 2001-2017
</metadata>
<g transform="translate(0.000000,198.000000) scale(0.100000,-0.100000)"
fill="#000000" stroke="none">
<path d="M0 990 l0 -990 990 0 990 0 0 990 0 990 -990 0 -990 0 0 -990z m490
60 c0 -5 -7 -10 -15 -10 -8 0 -15 5 -15 10 0 6 7 10 15 10 8 0 15 -4 15 -10z
m-122 -33 c4 -35 18 -34 37 3 9 17 22 30 31 30 9 0 12 -5 8 -12 -64 -108 -86
-116 -101 -38 -9 45 -8 51 6 48 9 -2 17 -15 19 -31z m367 -9 c-7 -44 -20 -67
-31 -56 -12 12 8 98 23 98 12 0 13 -9 8 -42z m57 10 l3 -33 20 33 c10 17 25
32 32 32 6 0 13 -15 15 -32 l4 -33 19 32 c33 54 49 40 20 -17 -29 -58 -61 -69
-67 -22 l-4 27 -12 -27 c-18 -42 -48 -37 -56 10 -9 54 -8 62 8 62 9 0 16 -12
18 -32z m344 15 c-2 -10 -7 -33 -11 -50 -4 -19 -13 -33 -21 -33 -10 0 -13 8
-9 25 3 14 7 36 10 50 3 14 12 25 21 25 10 0 14 -6 10 -17z m100 -33 c-10 -50
-10 -50 -48 -50 -27 0 -41 5 -45 16 -9 24 10 49 41 52 15 2 30 10 33 18 3 8
11 14 17 14 10 0 10 -12 2 -50z m-756 -11 c-11 -36 -15 -42 -28 -38 -14 6 7
69 23 69 11 0 12 -7 5 -31z m105 21 c9 -15 -6 -60 -21 -60 -10 0 -13 7 -8 25
5 19 2 25 -9 25 -9 0 -17 -10 -19 -22 -2 -13 -10 -24 -19 -26 -12 -2 -14 5
-11 33 4 33 6 35 43 35 21 0 40 -4 44 -10z m50 -10 c6 -20 7 -20 25 2 31 39
34 12 3 -34 -19 -28 -37 -44 -53 -46 -23 -2 -23 -1 -8 11 13 10 16 23 11 50
-6 40 11 52 22 17z m370 9 c4 -5 4 -21 1 -35 -6 -22 -11 -25 -44 -22 -40 3
-54 27 -32 53 14 17 66 20 75 4z m85 1 c0 -5 -7 -10 -15 -10 -8 0 -17 -11 -21
-25 -3 -14 -13 -25 -21 -25 -10 0 -13 6 -9 16 3 9 6 24 6 35 0 14 7 19 30 19
17 0 30 -4 30 -10z m347 4 c-3 -3 -12 -4 -19 -1 -8 3 -5 6 6 6 11 1 17 -2 13
-5z"/>
<path d="M1170 985 c0 -8 7 -15 15 -15 8 0 15 7 15 15 0 8 -7 15 -15 15 -8 0
-15 -7 -15 -15z"/>
<path d="M950 985 c0 -8 7 -15 15 -15 8 0 15 7 15 15 0 8 -7 15 -15 15 -8 0
-15 -7 -15 -15z"/>
</g>
</svg>
